<?xml version="1.0" standalone="no"?>
<!DOCTYPE svg PUBLIC "-//W3C//DTD SVG 20010904//EN"
 "http://www.w3.org/TR/2001/REC-SVG-20010904/DTD/svg10.dtd">
<svg version="1.0" xmlns="http://www.w3.org/2000/svg"
 width="313.000000pt" height="228.000000pt" viewBox="0 0 313.000000 228.000000"
 preserveAspectRatio="xMidYMid meet">

<g transform="translate(0.000000,228.000000) scale(0.100000,-0.100000)"
fill="#000000" stroke="none">
<path d="M616 2018 c21 -209 21 -214 23 -165 1 54 13 60 33 17 7 -17 20 -32
28 -35 20 -7 43 -54 27 -56 -7 -1 4 -5 23 -9 31 -6 27 -7 -37 -15 l-73 -8 1
-31 c1 -78 57 -634 58 -578 l1 64 27 -32 c14 -17 38 -36 52 -41 20 -8 23 -12
11 -19 -13 -8 -13 -10 0 -10 9 0 33 -18 55 -40 21 -21 42 -37 47 -34 4 3 8 -2
8 -10 0 -22 17 -20 23 2 3 9 4 -9 3 -41 -1 -31 1 -57 6 -57 4 0 8 183 8 408 0
373 2 410 19 447 30 66 78 96 174 110 105 15 188 -30 204 -110 4 -22 6 -223 3
-447 l-5 -406 -31 -39 c-21 -26 -45 -43 -77 -53 -48 -15 -63 -42 -31 -54 30
-11 100 -6 122 10 22 15 22 14 22 -25 0 -35 -4 -43 -32 -58 -20 -10 -56 -17
-90 -17 l-58 -1 0 -36 c0 -67 13 -159 22 -159 5 0 30 19 54 43 36 33 56 43 92
48 41 6 50 3 71 -17 14 -13 22 -26 18 -30 -9 -9 -38 16 -32 26 3 5 2 11 -3 14
-17 10 -8 -24 9 -40 14 -13 22 -14 32 -5 11 9 17 8 27 -4 11 -13 8 -15 -21
-16 -19 -1 -6 -5 31 -10 36 -4 81 -4 100 1 19 5 79 10 132 12 l97 3 194 -206
194 -206 6 210 c4 116 8 211 10 213 1 1 124 5 274 10 l272 7 6 41 c11 81 114
1280 110 1284 -3 4 -409 -34 -477 -44 l-38 -6 6 105 7 105 -84 6 c-70 5 -1547
47 -1632 46 l-28 0 7 -62z m1404 -152 l0 -84 -51 -4 c-28 -1 -53 -1 -55 1 -2
2 -4 39 -4 82 l0 78 33 4 c83 10 77 16 77 -77z m420 -184 c0 -22 -46 -180
-106 -361 -58 -178 -103 -325 -101 -327 2 -2 46 0 98 6 51 5 97 6 102 1 5 -5
7 -26 5 -47 l-3 -39 -130 -12 c-202 -18 -185 -21 -185 35 0 34 30 138 105 362
58 173 105 316 105 318 0 4 -110 -5 -172 -14 l-38 -6 0 46 c0 25 3 46 8 47 4
0 63 6 132 13 194 21 180 22 180 -22z m-420 -401 l0 -398 -37 -7 c-80 -13 -73
-53 -73 393 0 310 3 400 13 404 6 3 31 6 55 6 l42 1 0 -399z m-220 -20 l0
-398 -42 -6 c-49 -7 -58 -3 -58 24 0 18 -4 17 -40 -12 -31 -25 -52 -33 -94
-37 -48 -4 -56 -1 -87 26 l-34 30 -3 370 -3 369 23 7 c13 3 38 6 56 6 l32 0 0
-344 c0 -305 2 -346 16 -361 21 -20 69 -12 102 18 22 20 22 21 22 357 0 185 3
340 7 343 3 4 28 7 55 7 l48 0 0 -399z m-613 -753 c-3 -8 -6 -5 -6 6 -1 11 2
17 5 13 3 -3 4 -12 1 -19z"/>
<path d="M1115 1770 c-51 -20 -50 -15 -47 -439 3 -312 6 -399 17 -410 20 -21
90 -19 114 3 21 19 21 26 21 422 l0 403 -22 15 c-24 17 -52 19 -83 6z"/>
<path d="M973 835 c0 -8 4 -12 9 -9 5 3 6 10 3 15 -9 13 -12 11 -12 -6z"/>
<path d="M1007 819 c7 -7 15 -10 18 -7 3 3 -2 9 -12 12 -14 6 -15 5 -6 -5z"/>
<path d="M1048 803 c7 -3 16 -2 19 1 4 3 -2 6 -13 5 -11 0 -14 -3 -6 -6z"/>
<path d="M1081 784 c-1 -11 6 -29 15 -40 8 -10 12 -13 9 -6 -4 8 -11 26 -15
40 -7 22 -8 23 -9 6z"/>
<path d="M1078 713 c7 -3 16 -2 19 1 4 3 -2 6 -13 5 -11 0 -14 -3 -6 -6z"/>
</g>
</svg>
